<?xml version="1.0" encoding="utf-8"?>
<!-- Generator: Adobe Illustrator 27.5.0, SVG Export Plug-In . SVG Version: 6.00 Build 0)  -->
<svg version="1.1" id="Layer_1" xmlns="http://www.w3.org/2000/svg" xmlns:xlink="http://www.w3.org/1999/xlink" x="0px" y="0px"
	 viewBox="0 0 500 500" style="enable-background:new 0 0 500 500;" xml:space="preserve">
<g>
	<rect style="fill:#FFFFFF;" width="500" height="500"/>
	<g>
		<ellipse style="opacity:0.55;fill-rule:evenodd;clip-rule:evenodd;fill:#D2D6D1;" cx="325.5" cy="402.333" rx="78.333" ry="15"/>
		
			<ellipse style="opacity:0.55;fill-rule:evenodd;clip-rule:evenodd;fill:#D2D6D1;" cx="191.167" cy="396.085" rx="96.667" ry="18.581"/>
		<g>
			<g>
				<path style="fill:#F7B690;" d="M251.917,331.25c-0.33,3.066-0.514,6.328,0.896,9.07c1.41,2.742,4.984,4.6,7.684,3.11
					c1.522-0.84,2.395-2.477,3.185-4.025c4.437-8.693,8.874-17.385,13.311-26.078c3.658-7.167,7.414-14.771,6.949-22.804
					c-0.214-3.711-1.38-7.412-3.623-10.376c-1.96-2.589-6.218-6.712-9.148-3.685c-2.917,3.015-4.92,8.276-6.767,12.007
					c-4.263,8.614-7.55,17.712-9.777,27.061C253.395,320.707,252.487,325.96,251.917,331.25z"/>
				<path style="fill-rule:evenodd;clip-rule:evenodd;fill:#E5005B;" d="M283.907,292.228c-0.239-4.129-1.535-8.247-4.031-11.546
					c-2.181-2.881-3.456-10.12-6.716-6.751c-3.246,3.354-8.938,11.86-10.993,16.012c-2.703,5.463-5.04,11.104-7.021,16.868
					l21.271,10.313C280.409,309.29,284.414,300.989,283.907,292.228z"/>
				<path style="fill:#F7B690;" d="M252.584,330.652c2.158-2.628,5.876-3.549,9.256-3.174c3.38,0.375,6.525,1.852,9.597,3.311
					c5.632,2.674,11.259,5.359,16.886,8.044c5.809,2.772,11.617,5.543,17.426,8.315c0.905,0.432,1.901,0.965,2.193,1.924
					c0.313,1.028-0.371,2.149-1.301,2.686c-0.931,0.537-2.045,0.624-3.118,0.68c-8.716,0.454-17.495-0.377-25.982-2.409
					c-4.286-1.026-8.499-2.357-12.595-3.984c-3.519-1.398-8.513-2.943-11.356-5.528
					C250.872,338.048,250.185,333.574,252.584,330.652z"/>
			</g>
			<g>
				<path style="fill-rule:evenodd;clip-rule:evenodd;fill:#405D64;" d="M289.064,350.241c6.474-0.948,37.201-0.948,43.675,0
					c8.052,1.179,6.84,11.199,5.825,17.194c-1.107,6.542-2.461,13.566-7.269,18.138c-4.696,4.465-36.091,4.465-40.787,0
					c-4.808-4.572-6.162-11.596-7.269-18.138C282.224,361.439,281.012,351.419,289.064,350.241z"/>
				<path style="fill-rule:evenodd;clip-rule:evenodd;fill:#405D64;" d="M401.813,377.719c3.38,3.727,5.585,9.84,2.655,13.713
					c-2.482,3.281-71.855-3.173-82.115-3.173c-7.29-9.292-7.001-23.402,11.679-32.911c3.996-2.034,8.385,0.104,12.728,1.017
					C359.327,359.009,393.417,368.46,401.813,377.719z"/>
				<path style="fill-rule:evenodd;clip-rule:evenodd;fill:#405D64;" d="M251.808,311.504c-5.013-0.436-10.547,1.512-12.988,5.912
					c-1.996,3.598-1.568,8.146,0.114,11.901c1.681,3.755,4.469,6.886,7.213,9.951c39.668,44.312,40.31,46.319,46.942,48.098
					c11.302,3.033,24.948-0.047,14.93-25.999C306.404,357.184,264.26,312.587,251.808,311.504z"/>
				<path style="fill:#F7B690;" d="M287.106,402.127c-2.641-1.541-7.877-8.348-14.007-17.313l11.537-4.065
					C288.408,394.133,289.875,403.743,287.106,402.127z"/>
				<path style="fill-rule:evenodd;clip-rule:evenodd;fill:#5F7884;" d="M241.761,312.244c7.037-3.395,13.974-2.51,19.593,6.596
					c7.576,12.278,17.741,42.246,23.282,61.909l-13.236,5.998c-8.378-19.12-24.895-43.919-31.293-55.183
					C236.52,325.247,236.21,314.922,241.761,312.244z"/>
				<g>
					<path style="fill:#F7B690;" d="M322.099,389.622l5.728,10.708c-8.557,0.565-15.442,0.661-18.345-0.542
						C306.563,398.579,312.391,394.312,322.099,389.622z"/>
					<path style="fill-rule:evenodd;clip-rule:evenodd;fill:#5F7884;" d="M389.833,377.538c10.7,0,15.983,5.501,15.983,9.376
						c0,6.59-4.067,13.635-14.199,13.635c-12.885,0-45.169-0.439-64.97,0.912l-4.547-11.838
						C336.709,382.564,374.182,377.538,389.833,377.538z"/>
					<path style="fill-rule:evenodd;clip-rule:evenodd;fill:#0A3C5F;" d="M305.245,398.287c0.39-0.244,3.337-4.59,5.261-5.359
						c1.116-0.446,2.622-1.155,3.819-0.569c1.356,0.664,1.419,2.548,2.224,3.683c0.605,0.853,1.432,1.552,2.371,2.016l1.872-2.515
						c6.625,3.059,1.362,10.761,8.007,13.931c1.605,0.766,3.355,1.302,4.732,2.428c1.376,1.126,2.248,3.18,1.332,4.704
						c-0.344,0.573-0.892,0.972-1.516,1.215l-21.407-10.387c0,0-0.128-4.332,0.484-4.819c-0.727,0.294-2.431,1.086-3.207,1.098
						L305.245,398.287z"/>
				</g>
				<path style="fill-rule:evenodd;clip-rule:evenodd;fill:#0A3C5F;" d="M272.627,402.693c-0.07-1.771,0.669-3.239,1.429-3.651
					c0.76-0.412,1.947-3.381,3.521-7.727c0.72-1.987,4.732-2.543,6.736,0.879c0.65,1.11,1.254,1.831,1.983,1.806
					c0.612-0.02,1.296-1.083,1.884-0.381c0.519,0.62,0.658,2.254,0.79,3.418c0.226,2.007,0.432,4.027,0.647,6.04
					c0.048,0.446,0.095,0.912,0.109,1.371h-16.733C272.793,403.957,272.653,403.359,272.627,402.693z"/>
			</g>
			<g>
				<path style="fill:#F7B690;" d="M369.885,331.25c0.33,3.066,0.514,6.328-0.896,9.07c-1.41,2.742-4.984,4.6-7.684,3.11
					c-1.521-0.84-2.395-2.477-3.185-4.025c-4.437-8.693-8.874-17.385-13.311-26.078c-3.658-7.167-7.414-14.771-6.95-22.804
					c0.215-3.711,1.38-7.412,3.623-10.376c1.96-2.589,6.218-6.712,9.148-3.685c2.918,3.015,4.92,8.276,6.767,12.007
					c4.263,8.614,7.55,17.712,9.777,27.061C368.407,320.707,369.316,325.96,369.885,331.25z"/>
				<path style="fill-rule:evenodd;clip-rule:evenodd;fill:#E5005B;" d="M337.864,292.228c0.239-4.129,1.535-8.247,4.031-11.546
					c2.181-2.881,3.456-10.12,6.716-6.751c3.246,3.354,8.938,11.86,10.993,16.012c2.703,5.463,5.04,11.104,7.021,16.868
					l-21.271,10.313C341.362,309.29,337.357,300.989,337.864,292.228z"/>
				<path style="fill:#F7B690;" d="M368.651,332.17c-2.158-2.628-5.876-3.549-9.255-3.174c-3.38,0.375-6.525,1.852-9.597,3.311
					c-5.632,2.674-11.259,5.359-16.886,8.044c-5.809,2.772-11.617,5.543-17.426,8.315c-0.905,0.432-1.901,0.965-2.193,1.924
					c-0.313,1.028,0.371,2.149,1.301,2.686c0.93,0.537,2.045,0.624,3.118,0.68c8.717,0.454,17.495-0.377,25.982-2.409
					c4.286-1.026,8.499-2.357,12.595-3.984c3.519-1.398,8.513-2.943,11.356-5.528C370.363,339.566,371.05,335.092,368.651,332.17z"
					/>
			</g>
			<path style="fill-rule:evenodd;clip-rule:evenodd;fill:#E5005B;" d="M272.292,274.891c2.073-2.509,5.194-3.879,8.25-4.999
				c8.98-3.293,29.581-11.91,30.359-11.894c0.778-0.016,21.379,8.601,30.359,11.894c3.056,1.121,6.177,2.49,8.25,4.999
				c2.766,3.348,3.126,8.158,2.131,12.385c-0.994,4.227-3.163,8.065-5.056,11.973c-2.362,4.875-4.316,9.946-5.85,15.141
				c-2.771,9.385-4.17,19.176-4.126,28.961c0.013,3,1.607,8.074,0.685,10.905c-1.158,3.555-7.288,4.36-10.384,4.759
				c-5.304,0.683-10.665,0.91-16.008,0.687c-5.343,0.223-10.704-0.004-16.008-0.687c-3.096-0.399-9.226-1.204-10.384-4.759
				c-0.922-2.831,0.671-7.905,0.685-10.905c0.044-9.786-1.356-19.576-4.127-28.961c-1.534-5.195-3.488-10.266-5.85-15.141
				c-1.893-3.908-4.062-7.745-5.056-11.973C269.167,283.048,269.527,278.238,272.292,274.891z"/>
			<g>
				<path style="fill:#F4A086;" d="M304.129,256.948c0.837-2.695,1.287-7.734,2.953-9.526c1.001-1.076,6.22-1.076,7.221,0
					c1.666,1.792,2.116,6.831,2.953,9.526c0.938,3.019,1.755,6.639,0.776,9.625c-0.686,2.091-2.138,3.345-3.609,3.768
					c-1.229,0.353-6.231,0.353-7.46,0c-1.472-0.422-2.923-1.677-3.609-3.768C302.374,263.588,303.191,259.967,304.129,256.948z"/>
				<path style="fill:#F7B690;" d="M299.638,234.253c1.68-4.896,20.43-4.896,22.11,0c1.337,3.895,1.527,8.29,0.766,12.391
					c-0.718,3.872-2.283,7.381-4.476,10.288c-1.496,1.983-3.444,4.906-5.622,5.892h-3.445c-2.179-0.986-4.126-3.909-5.622-5.892
					c-2.193-2.907-3.758-6.416-4.476-10.288C298.111,242.543,298.301,238.148,299.638,234.253z"/>
				<path style="fill-rule:evenodd;clip-rule:evenodd;fill:#0A3C5F;" d="M300.203,247.238c-0.232-1.158-0.742-2.247-0.967-3.407
					c-0.225-1.16-0.64-2.491,0.203-3.319c0.768,3.552,2.271,7.061,3.437,10.503c0.253,0.745,0.53,1.514,1.082,2.075
					c0.677,0.688,1.664,0.962,2.615,1.129c1.044,0.184,3.802-0.991,4.121-0.972c0.319-0.02,3.077,1.155,4.121,0.972
					c0.951-0.167,1.938-0.441,2.614-1.129c0.552-0.561,0.829-1.33,1.082-2.075c1.166-3.442,2.136-6.951,2.905-10.503
					c0.842,0.828,0.961,2.16,0.735,3.319c-0.225,1.16-0.735,2.249-0.967,3.407c-0.018,0.091-0.034,0.183-0.048,0.275
					c-0.114,0.759-0.086,1.574,0.228,2.284c0.144,0.325,0.337,0.535,0.349,0.893c0.011,0.332-0.132,0.743-0.197,1.07
					c-0.308,1.572-0.763,3.115-1.352,4.604c-0.589,1.49-1.31,2.928-2.151,4.292c-0.421,0.683-0.871,1.348-1.349,1.991
					c-0.2,0.269-1.139,1.796-1.454,1.796l-3.663,1.047h-1.706l-3.664-1.047c-0.315,0-1.254-1.527-1.454-1.796
					c-0.478-0.644-0.928-1.309-1.349-1.991c-0.84-1.364-1.562-2.802-2.151-4.292c-0.589-1.49-1.044-3.032-1.352-4.604
					c-0.064-0.327-0.207-0.738-0.197-1.07c0.012-0.358,0.205-0.568,0.349-0.893c0.314-0.71,0.342-1.526,0.228-2.284
					C300.237,247.421,300.221,247.329,300.203,247.238z"/>
				<path style="fill-rule:evenodd;clip-rule:evenodd;fill:#0A3C5F;" d="M292.332,224.111c2.281-3.03,6.486-4.216,9.858-2.754
					c1.418,0.615,2.693,1.644,4.195,1.959c1.754,0.367,3.539-0.294,5.211-0.967c1.672-0.674,3.429-1.383,5.198-1.114
					c1.77,0.269,3.495,1.911,3.266,3.805c2.386-0.941,5.281-0.154,6.954,1.893c1.674,2.046,2.016,5.216,0.823,7.616
					c-0.721,1.449-1.929,2.608-2.455,4.15c-0.602,1.763,0.092,5.994-2.009,6.804c-1.622,0.625-2.525-12.272-7.075-12.597
					c-2.414,2.58-6.435,3.239-9.463,1.551c-1.136-0.633-2.34-1.589-3.561-1.177c-0.815,0.275-1.819,0.668-2.345,1.394
					c-1.269,1.753-0.898,9.736-2.649,11.053c-0.936-2.82-1.304-5.849-1.1-8.833c-0.793,0.02-1.589-0.106-2.329-0.409
					c-2.149-0.879-3.754,0.095-4.197-2.318C290.211,231.756,290.889,226.027,292.332,224.111z"/>
				<path style="fill:#F7B690;" d="M324.631,246.329c0.452-0.837,0.826-1.788,0.701-2.745c-0.126-0.957-0.919-1.866-1.818-1.756
					c-0.554,0.068-1.023,0.499-1.309,1.01c-0.286,0.512-0.417,1.103-0.545,1.683c-0.223,1.012-0.446,2.024-0.668,3.037
					c-0.188,0.852-0.299,1.932,0.376,2.427C322.603,250.891,324.138,247.24,324.631,246.329z"/>
				<path style="fill:#F7B690;" d="M296.898,246.329c-0.452-0.837-0.826-1.788-0.701-2.745c0.126-0.957,0.919-1.866,1.817-1.756
					c0.554,0.068,1.024,0.499,1.309,1.01c0.285,0.512,0.417,1.103,0.545,1.683c0.223,1.012,0.446,2.024,0.668,3.037
					c0.188,0.852,0.299,1.932-0.376,2.427C298.926,250.891,297.391,247.24,296.898,246.329z"/>
			</g>
			<path style="fill:#D4EDF9;" d="M283.013,355.36h56.865c2.659,0,4.875-2.038,5.098-4.688l2.952-35.14
				c0.251-2.984-2.104-5.544-5.098-5.544h-62.769c-2.994,0-5.349,2.56-5.098,5.544l2.952,35.14
				C278.137,353.322,280.353,355.36,283.013,355.36z"/>
			<path style="fill:#3C79A6;" d="M347.802,317.035c-0.541-2.225-2.546-3.906-4.972-3.906h-62.769c-2.426,0-4.431,1.681-4.972,3.906
				l-0.126-1.503c-0.251-2.984,2.104-5.544,5.098-5.544h62.769c2.994,0,5.349,2.56,5.098,5.544L347.802,317.035z"/>
		</g>
		<g>
			<path style="fill-rule:evenodd;clip-rule:evenodd;fill:#561C07;" d="M171.049,312.425c-1.253,3.814-3.09,8.116-6.511,9.184
				c-2.372,0.74-10.025-3.951-11.695-5.834c-1.67-1.883-10.609-92.682-8.295-98.21c3.105-7.415,37.651,2.826,38.391,15.69
				c0.947,16.446-1.181,33.942-4.359,50.249C176.673,293.291,174.158,302.966,171.049,312.425z"/>
			<path style="fill:#F4A086;" d="M231.115,386.821c-3.236,1.703-6.864,2.657-10.519,2.766c-1.181-4.102-2.361-8.204-3.542-12.306
				c-0.149-0.518-0.299-1.064-0.178-1.589c0.177-0.772,0.885-1.294,1.575-1.682c2.616-1.47,6.802-3.111,8.119,0.345
				C228.144,378.486,229.597,382.669,231.115,386.821z"/>
			<path style="fill:#F4A086;" d="M164.432,396.715c-3.608,0.536-7.352,0.235-10.857-0.873c0.167-4.262,0.333-8.523,0.5-12.785
				c0.021-0.538,0.05-1.103,0.329-1.558c0.411-0.67,1.247-0.928,2.024-1.066c2.945-0.521,7.436-0.684,7.602,3.014
				C164.227,387.866,164.294,392.294,164.432,396.715z"/>
			<path style="fill-rule:evenodd;clip-rule:evenodd;fill:#561C07;" d="M151.797,301.973c3.617-7.545,14.235-12.716,20.926,0.372
				c10.205,19.961-7.46,57.297-7.379,81.402h-12.379C152.28,381.413,149.79,306.158,151.797,301.973z"/>
			<path style="fill-rule:evenodd;clip-rule:evenodd;fill:#732706;" d="M199.004,239.673c-3.014,2.374-6.999,2.737-10.737,2.737
				c-30.77,0-44.32-7.32-44.32-24.141c0-15.163,31.908-12.175,46.291-7.496c3.1,1.008,7.618,1.985,9.736,4.88
				C203.046,219.849,206.326,233.905,199.004,239.673z"/>
			<path style="fill:#F4A086;" d="M156.917,140.135c-1.001,14.144-3.775,28.634-11.731,40.37c-1.715,2.53-4.206,5.154-7.245,4.835
				c-1.776-0.187-3.321-1.409-4.28-2.917c-0.959-1.507-1.409-3.278-1.737-5.034c-2.578-13.82,1.64-27.904,5.842-41.32
				c1.73-5.526,4.031-15.307,9.656-18.287c5.859-3.104,8.809,6.483,9.346,10.392C157.311,132.133,157.198,136.159,156.917,140.135z"
				/>
			<path style="fill-rule:evenodd;clip-rule:evenodd;fill:#00A0DB;" d="M157.591,120.04c-0.269-2.34-0.895-5.097-3.067-6.118
				c-2.291-1.077-4.751,0.495-6.533,2.094c-10.803,9.691-14.897,23.37-16.855,38.051l25.905,1.598
				C158.768,143.977,158.965,131.97,157.591,120.04z"/>
			<path style="fill-rule:evenodd;clip-rule:evenodd;fill:#732706;" d="M196.39,312.425c-1.041,3.814-2.638,8.116-6,9.184
				c-2.331,0.74-7.336-8.886-9.111-10.77c-1.775-1.883-18.954-73.124-16.947-78.652c2.692-7.416,9.445-12.218,16.389-13.324
				c10.091-1.607,21.701,1.527,23.157,14.391c1.861,16.446,0.707,33.942-1.565,50.249
				C200.949,293.291,198.972,302.966,196.39,312.425z"/>
			<path style="fill:#F7B690;" d="M121.549,178.348c-0.729,1.629,0.027,3.62,1.337,4.832c1.31,1.212,10.418,5.5,19.359,1.546
				c4.5-1.99,5.182-6.325,3.604-10.439C143.653,168.56,122.413,176.418,121.549,178.348z"/>
			<path style="fill-rule:evenodd;clip-rule:evenodd;fill:#732706;" d="M179.017,304.696c0.264-8.073,9.203-17.517,19.901-6.589
				c17.224,17.596,22.258,51.158,28.972,76.102l-11.681,4.099C214.589,376.403,178.87,309.184,179.017,304.696z"/>
			<path style="fill-rule:evenodd;clip-rule:evenodd;fill:#00A0DB;" d="M205.242,171.464c4.197-13.469,9.352-30.108,7.028-44.191
				c-5.702-6.962-17.362-23.123-40.482-23.123c-16.218,0-28.36,16.375-31.173,20.536c-3.135,4.637-1.997,11.245-1.216,16.607
				c1.665,11.431,6.614,56.347,2.315,87.522h65.483C207.071,213.948,201.012,185.039,205.242,171.464z"/>
			<path style="fill:#F4A086;" d="M220.307,155.087c-3.244-12.372-10.167-23.754-19.662-32.323
				c-1.709-1.542-4.027-3.088-6.145-2.186c-1.156,0.492-1.928,1.641-2.269,2.85c-0.34,1.209-0.308,2.488-0.258,3.743
				c0.583,14.636,3.243,29.101,5.895,43.507c0.815,4.426,1.648,8.909,3.559,12.983c1.912,4.074,5.057,7.763,9.265,9.357
				c2.203,0.835,5.807,1.326,7.837-0.259c1.633-1.275,1.904-4.524,2.317-6.372c1.466-6.557,1.929-13.336,1.379-20.032
				C221.914,162.553,221.275,158.778,220.307,155.087z"/>
			<path style="fill-rule:evenodd;clip-rule:evenodd;fill:#18898D;" d="M223.984,159.737c0.022,0.089,0.035,0.18,0.035,0.274
				C224.009,159.919,223.993,159.828,223.984,159.737z"/>
			<path style="fill-rule:evenodd;clip-rule:evenodd;fill:#00A0DB;" d="M191.561,120.04c0.122-2.34,0.574-5.097,2.682-6.118
				c2.224-1.077,6.356,0.954,8.239,2.553c11.413,9.691,17.762,22.912,20.645,37.593l-28.773,1.598
				C191.892,143.977,190.939,131.97,191.561,120.04z"/>
			<g>
				<path style="fill:#F4A086;" d="M165.291,87.941c1.584-6.989,6.872-8.627,9.947-6.949c1.97,13.083,3.979,18.898,9.107,26.035
					c-6.375,4.088-17.261,3.327-19.613,0C164.638,105.978,164.472,91.555,165.291,87.941z"/>
				<path style="fill:#F7B690;" d="M165.636,71.53c-6.329-4.377-15.44-0.578-16.755,7.517c-1.204,7.411,6.249,20.128,9.784,22.192
					c6.182,3.608,14.493-5.052,14.784-9.207C173.875,85.946,170.959,75.211,165.636,71.53z"/>
				<path style="fill-rule:evenodd;clip-rule:evenodd;fill:#222B56;" d="M170.138,73.087c0.491-0.331,1.159-0.295,1.702-0.059
					c0.543,0.237,0.99,0.646,1.425,1.048c1.48,1.367,2.972,2.747,4.142,4.388c1.17,1.641,2.009,3.584,2.012,5.599
					c0.002,1.307-0.338,2.664,0.111,3.892c0.402,1.1,1.423,2.113,1.117,3.244c-0.227,0.839-1.185,1.335-2.049,1.241
					c-0.865-0.094-1.617-0.658-2.165-1.333c-0.548-0.675-0.931-1.466-1.374-2.214c-1.472-2.484-3.617-4.51-5.147-6.959
					c-1.53-2.449-2.383-5.662-1-8.197L170.138,73.087z"/>
				<path style="fill-rule:evenodd;clip-rule:evenodd;fill:#222B56;" d="M140.772,76.356c1.367-0.553,2.734-1.106,4.1-1.66
					c-0.628,0.777-1.273,1.588-1.52,2.556c-0.246,0.969,0.022,2.145,0.885,2.649c0.671,0.392,1.542,0.289,2.233-0.066
					c0.691-0.355,1.241-0.928,1.777-1.491c-0.281,0.521-0.569,1.07-0.573,1.662c-0.003,0.592,0.383,1.232,0.972,1.297
					c0.468,0.052,0.892-0.256,1.262-0.548c1.855-1.462,3.711-2.924,5.566-4.386c-0.109,0.582-0.219,1.177-0.125,1.762
					c0.094,0.584,0.434,1.165,0.984,1.382c0.967,0.381,1.962-0.482,2.55-1.339c0.588-0.857,1.2-1.887,2.228-2.041
					c1.155-0.173,2.1,0.861,2.806,1.791c0.127,0.167,0.253,0.333,0.38,0.5c1.301,1.712,2.602,3.423,3.902,5.135
					c0.398,0.524,0.807,1.058,1.35,1.429c0.544,0.371,1.256,0.559,1.871,0.323c1.048-0.402,12.382-17.123-2.119-22.229
					c-2.099-0.739-5.063,0.08-7.186,0.748c-2.123,0.668-4.131,1.728-6.322,2.121c-1.736,0.312-3.519,0.193-5.274,0.367
					C145.609,66.806,140.901,71.306,140.772,76.356z"/>
				<path style="fill:#F7B690;" d="M176.858,79.902c0.655,1.637,0.639,3.532-0.043,5.158c-1.952,4.653-6.513,0.48-6.734-2.889
					C169.818,78.156,175.077,75.448,176.858,79.902z"/>
			</g>
			<path style="fill-rule:evenodd;clip-rule:evenodd;fill:#00A0DB;" d="M130.514,402.976c-0.159-1.771,1.522-3.238,3.252-3.651
				c1.73-0.412,3.539-0.098,5.317-0.119c5.071-0.059,9.998-3.1,12.324-7.607c0.32-0.62,0.63-1.303,1.238-1.645
				c0.809-0.455,1.859-0.116,2.577,0.473c0.718,0.589,1.225,1.393,1.88,2.051c1.175,1.178,2.852,1.831,4.512,1.806
				c1.391-0.021,2.949-1.083,4.285-0.381c1.18,0.62,1.497,2.254,1.797,3.418c0.515,2.007,0.982,4.027,1.473,6.04
				c0.109,0.446,0.215,0.912,0.248,1.371h-9.664c-0.449-0.633-0.816-2.476-1.008-3.236c-0.032,0.782-0.341,2.634-0.837,3.236h-26.56
				C130.892,404.24,130.573,403.642,130.514,402.976z"/>
			<path style="fill-rule:evenodd;clip-rule:evenodd;fill:#00A0DB;" d="M218.408,397.915c-0.652-1.648-0.441-3.277,0.14-3.918
				c0.581-0.641,0.718-3.835,0.764-8.456c0.021-2.114,3.623-3.966,6.647-1.401c0.981,0.832,1.789,1.312,2.469,1.048
				c0.57-0.222,0.865-1.451,1.651-0.983c0.695,0.413,1.367,1.909,1.877,2.964c0.878,1.819,1.741,3.657,2.611,5.485
				c0.193,0.405,0.391,0.829,0.557,1.257l-15.79,5.54C218.983,399.053,218.653,398.535,218.408,397.915z"/>
			<g>
				<path style="fill:#D4EDF9;" d="M173.412,197.516h-39.285c-2.325,0-4.737-1.884-5.388-4.209l-17.285-61.734
					c-0.651-2.325,0.706-4.209,3.03-4.209h39.285c2.325,0,4.737,1.884,5.388,4.209l17.286,61.734
					C177.093,195.632,175.736,197.516,173.412,197.516z"/>
				<path style="fill:#3C79A6;" d="M176.442,193.307l-17.285-61.734c-0.651-2.325-3.063-4.209-5.388-4.209h-4.189
					c2.325,0,4.737,1.885,5.388,4.209l17.285,61.734c0.651,2.325-0.706,4.209-3.031,4.209h4.189
					C175.736,197.516,177.093,195.632,176.442,193.307z"/>
			</g>
			<path style="fill:#F7B690;" d="M170.829,179.198c-1.923,1.248-2.24,4.101-1.25,6.168c0.99,2.068,34.402,10.168,42.452,10.035
				c2.449-0.041,5.263-0.274,6.705-2.255c1.287-1.77,0.921-4.232,0.232-6.309c-1.158-3.488-3.185-7.419-6.038-9.833
				C210.961,175.339,172.06,178.399,170.829,179.198z"/>
			<path style="fill:#F7B690;" d="M158.773,173.287c-0.805-1.12-1.62-2.662-0.798-3.77c0.545-0.734,1.625-0.884,2.496-0.608
				c0.872,0.277,1.589,0.888,2.298,1.465c0.958,0.781,2.005,1.552,3.228,1.727c1.224,0.175,2.651-0.464,2.939-1.666
				c0.316-1.314-0.71-2.97,0.257-3.913c0.508-0.495,1.361-0.463,1.981-0.119c0.62,0.344,1.062,0.931,1.484,1.501
				c2.243,3.028,4.537,6.162,5.438,9.821c0.901,3.659,0.064,8.016-2.995,10.217c-2.734,1.968-6.768,1.676-9.4-0.425
				c-2.249-1.794-3.108-4.363-3.403-7.118C161.977,177.38,160.607,175.84,158.773,173.287z"/>
			<path style="fill:#F7B690;" d="M119.445,170.152c0.145-0.422,0.379-7.165,0.726-7.447c0.634-0.514,3.001,7.421,2.512,8.074
				c1.714-0.183,2.227-0.237,3.942-0.42c1.247-0.133,2.878-0.032,3.256,1.164c0.302,0.955-0.463,1.873-0.993,2.722
				c-0.944,1.51,0.445,10.323-0.292,11.071c-2.727,2.767-8.697-2.031-9.692-4.731C117.523,176.84,118.21,173.754,119.445,170.152z"
				/>
		</g>
	</g>
</g>
</svg>
